<?xml version="1.0" encoding="UTF-8" standalone="no"?>
<!-- Created with Inkscape (http://www.inkscape.org/) -->

<svg
   width="57.060913"
   height="32.228027"
   viewBox="0 0 57.060913 32.228027"
   version="1.1"
   id="svg1"
   inkscape:version="1.3 (0e150ed, 2023-07-21)"
   sodipodi:docname="dibujo.svg"
   xmlns:inkscape="http://www.inkscape.org/namespaces/inkscape"
   xmlns:sodipodi="http://sodipodi.sourceforge.net/DTD/sodipodi-0.dtd"
   xmlns:xlink="http://www.w3.org/1999/xlink"
   xmlns="http://www.w3.org/2000/svg"
   xmlns:svg="http://www.w3.org/2000/svg">
  <sodipodi:namedview
     id="namedview1"
     pagecolor="#ffffff"
     bordercolor="#000000"
     borderopacity="0.25"
     inkscape:showpageshadow="2"
     inkscape:pageopacity="0.0"
     inkscape:pagecheckerboard="0"
     inkscape:deskcolor="#d1d1d1"
     inkscape:document-units="px"
     inkscape:zoom="1.4142136"
     inkscape:cx="556.13948"
     inkscape:cy="495.68185"
     inkscape:window-width="1366"
     inkscape:window-height="719"
     inkscape:window-x="0"
     inkscape:window-y="20"
     inkscape:window-maximized="1"
     inkscape:current-layer="layer1" />
  <defs
     id="defs1">
    <linearGradient
       id="linearGradient13"
       inkscape:collect="always">
      <stop
         style="stop-color:#b17840;stop-opacity:1"
         offset="0"
         id="stop13" />
      <stop
         style="stop-color:#6d5844;stop-opacity:0;"
         offset="1"
         id="stop16" />
    </linearGradient>
    <linearGradient
       inkscape:collect="always"
       xlink:href="#linearGradient13"
       id="linearGradient21"
       gradientUnits="userSpaceOnUse"
       gradientTransform="matrix(0.91975053,0,0,1,34.616974,-2)"
       x1="422.84985"
       y1="394.88708"
       x2="419.91187"
       y2="417.79733" />
  </defs>
  <g
     inkscape:label="Capa 1"
     inkscape:groupmode="layer"
     id="layer1"
     transform="translate(-730.38794,-545.81567)">
    <g
       id="g21"
       transform="matrix(0,-1,-1,0,1167.7108,963.25387)"
       inkscape:label="pie-der"
       inkscape:export-filename="../Top-down-shooter/scenes/entities/player/textures/right-foot.svg"
       inkscape:export-xdpi="97"
       inkscape:export-ydpi="97">
      <g
         id="g20"
         transform="rotate(-4.8238191,334.70097,630.51415)">
        <path
           id="path19"
           style="fill:#6d5844;fill-rule:evenodd;stroke:#000000;stroke-width:2.5"
           d="m 432.39579,423.91052 c 0,15.46477 -3.59901,17.18271 -14.3189,17.18271 -10.71989,0 -13.04612,-9.3547 -13.04612,-24.81946 0,-15.46476 3.59903,-26.72863 15.5917,-28.00142 19.51981,-2.07164 11.77332,20.17342 11.77332,35.63817 z"
           sodipodi:nodetypes="sssss" />
        <path
           id="path20"
           style="fill:url(#linearGradient21);fill-rule:evenodd;stroke:none;stroke-width:1.97495"
           d="m 430.21784,420.27201 c 0,12.73871 -2.72668,14.15382 -10.84829,14.15382 -8.12162,0 -9.88401,-7.7057 -9.88401,-20.4444 0,-12.7387 2.7267,-22.01702 11.81259,-23.06545 14.78862,-1.70646 8.91971,16.61734 8.91971,29.35603 z"
           sodipodi:nodetypes="sssss" />
      </g>
      <path
         id="path21"
         style="fill:#006600;fill-rule:evenodd;stroke:#000000;stroke-width:2.5"
         d="m 415.92021,421.11743 c -1.61868,6.96464 -7.55091,14.99586 -14.00072,14.9553 -8.26791,-0.052 -15.75756,-15.10289 -14.67571,-18.5553 2.4698,-7.88167 6.94333,-11.3553 14.67571,-11.3553 7.73238,0 15.87052,6.91014 14.00072,14.9553 z"
         sodipodi:nodetypes="sssss" />
    </g>
  </g>
</svg>
